<svg xmlns="http://www.w3.org/2000/svg" viewBox="0 0 64 64" role="img" aria-label="synth shield mark">
  <defs>
    <clipPath id="s"><path d="M32 6 54 11.5V30c0 13.6-8.7 22.6-22 27.6C18.7 52.6 10 43.6 10 30V11.5Z"/></clipPath>
  </defs>
  <path d="M32 3 57 9.2V30c0 15.4-10 25.7-25 31.2C17 55.7 7 45.4 7 30V9.2Z" fill="#101014" stroke="#8F959C" stroke-width="3" stroke-linejoin="miter"/>
  <g clip-path="url(#s)" fill="#C1121F">
    <rect x="28" y="6" width="8" height="54"/>
    <rect x="10" y="22" width="44" height="8"/>
  </g>
  <g fill="#8F959C">
    <path d="M48.7 30.7 43.6 39.2 36.2 45.7 41.3 37.2Z"/>
    <path d="M51.5 33.0 46.4 41.5 39.0 48.0 44.1 39.5Z"/>
    <path d="M54.3 35.3 49.2 43.8 41.8 50.3 46.9 41.8Z"/>
  </g>
</svg>
